<svg xmlns="http://www.w3.org/2000/svg" width="24" height="24" viewBox="0 -250 949 1000"><path fill="white" d="M453 290h-40v106q0 17-12 28t-30 11q-19 0-31.5-11T327 396q1-84 1-166t1-166q0-20 13-28t30-8h145q27 0 51 10.5T609.5 67t28 42 10.5 51q0 42-25 76t-63 47l67 82q11 13 11 27 0 19-13.5 31.5T593 436q-19 0-31-15zm64-81q18 0 31.5-14t13.5-34q0-18-13.5-32.5T517 114H413v95h104zm-43-348q78 0 145 28.5T736-31q51 50 79.5 117T844 231q0 76-28.5 142.5T736 491q-50 50-117 79t-145 29q-76 0-143-29t-116-79q-51-51-80-117.5T106 231q0-78 29-145t80-117q49-51 116-79.5T474-139zM675 30q-38-38-89.5-60.5T474-53q-58 0-109.5 22.5T275 30q-39 38-60.5 89.5T193 231q0 58 21.5 109.5T275 431q38 38 89.5 60T474 513q60 0 111.5-22t89.5-60q39-39 61-90.5T758 231q0-60-22-111.5T675 30z"></path></svg>