<svg xmlns="http://www.w3.org/2000/svg" width="24" height="24" viewBox="0 -230 950 1000"><path fill="currentColor" d="M542-140q27 0 45.5 17T606-79v53H344v-53q0-27 19.5-44t46.5-17h132zM233 287h486l-77-164H309zm596 329q0 29-18.5 45.5T765 678t-47-16.5-20-45.5v-41H254v41q0 29-20 45.5T188 678q-28 0-47-16.5T122 616V287L232 48q7-12 19-19.5t25-7.5h393q16 0 30 5t22 22l108 239v329zM277 363q-24 0-41 17t-17 43q0 25 17 42t41 17q25 0 42.5-17t17.5-42q0-26-17.5-43T277 363zm397 0q-25 0-42.5 17T614 423q0 25 17.5 42t42.5 17 42.5-17 17.5-42q0-26-17.5-43T674 363z"></path></svg>